# xmcd CD database file
#
# Track frame offsets:
#	150
#	2742
#	24830
#	47907
#	64800
#	87395
#	106990
#	110197
#	129350
#	152575
#	173100
#	192460
#	214272
#
# Disc length: 2883 seconds
#
# Revision: 0
# Processed by: cddbd v1.5.1PL2 Copyright (c) Steve Scherf et al.
# Submitted via: CDex 1.51
#
DISCID=af0b410d
DTITLE=ザ・シャムロック - CHEERS
DYEAR=1992
DGENRE=Rock
TTITLE0=fish#1
TTITLE1=永遠の週末
TTITLE2=見慣れた微笑みで
TTITLE3=Where is my word?
TTITLE4=make romance
TTITLE5=Girl, Don't worry
TTITLE6=fish#2
TTITLE7=EST
TTITLE8=Honesty
TTITLE9=君がいた
TTITLE10=Garden
TTITLE11=フェイバリット フール
TTITLE12=fish#3
EXTD=YEAR: 1992
EXTT0=
EXTT1=
EXTT2=
EXTT3=
EXTT4=
EXTT5=
EXTT6=
EXTT7=
EXTT8=
EXTT9=
EXTT10=
EXTT11=
EXTT12=
PLAYORDER=
